<svg xmlns="http://www.w3.org/2000/svg" viewBox="0 0 32 32" fill="none">
  <rect width="32" height="32" rx="8" fill="#6B8E7F"/>
  <path d="M8 24V10c0-1 .5-2 1.5-2.5C12 6 15 7.5 16 10c1-2.5 4-4 6.5-2.5 1 .5 1.5 1.5 1.5 2.5v14" stroke="white" stroke-width="2" stroke-linecap="round" stroke-linejoin="round" fill="none"/>
  <path d="M16 10v14" stroke="white" stroke-width="2" stroke-linecap="round"/>
  <path d="M11 14c1.5 1 3.5 1.5 5 0" stroke="white" stroke-width="1.5" stroke-linecap="round" fill="none"/>
  <path d="M16 14c1.5 1 3.5 1.5 5 0" stroke="white" stroke-width="1.5" stroke-linecap="round" fill="none"/>
  <path d="M12 18c1.2.8 2.8 1 4 0" stroke="white" stroke-width="1.5" stroke-linecap="round" fill="none"/>
  <path d="M16 18c1.2.8 2.8 1 4 0" stroke="white" stroke-width="1.5" stroke-linecap="round" fill="none"/>
</svg>